# xmcd
#
# Track frame offsets:
#       183
#       12920
#       24050
#       36568
#       50640
#       62585
#       77153
#       93388
#       105790
#       119320
#       131435
#       146318
#       162558
#       174608
#       198535
#
# Disc length: 2797 seconds
#
# Revision: 1
# Processed by: cddbd v1.4PL0 Copyright (c) Steve Scherf et al.
# Submitted via: WhereIsIt 3.22
#
DISCID=c10aeb0f
DTITLE=Various Artist - Lo Mejor del Country I [CD 2)
DYEAR=1993
DGENRE=Country
TTITLE0=Lynn Anderson - Rosegarden
TTITLE1=Roger Miller- King Of The Road
TTITLE2=Anne Miller - I Just Fall In Love Again
TTITLE3=Elvis Costello - Good Year For The Roses
TTITLE4=Ray Charles Together Again
TTITLE5=Bellamy Brothers - Let your Love Flow
TTITLE6=Charlie Daniels Band - The Devil Went Down To Georgia
TTITLE7=Nancy Sinatra - These Boots Are Made For Walkin'
TTITLE8=B.J. Thomas - I Just Can't Help Believing
TTITLE9=Tammy Wynette and George Jones - Crying Time
TTITLE10=Olivia Newton John - Take Me Home Country Roads
TTITLE11=Billie Jo spears - Blanket On The Ground
TTITLE12=Charlie rich - The Most Beautiful Girl
TTITLE13=Don McLean - Vincent
TTITLE14=Jim Croce - I'll Have To Say I Love You In A Song
EXTD=
EXTT0=
EXTT1=
EXTT2=
EXTT3=
EXTT4=
EXTT5=
EXTT6=
EXTT7=
EXTT8=
EXTT9=
EXTT10=
EXTT11=
EXTT12=
EXTT13=
EXTT14=
PLAYORDER=
